PathFileType	4	(X/Y/Z)	C:/Users/beibeiliu/ov580/test_trc/User1\sequence.15_training_dense_right.trc
DataRate	CameraRate	NumFrames	NumMarkers	Units	OrigDataRate	OrigDataStartFrame	OrigNumFrames
120	120	12	19	mm	120	137	273
Frame#	Time	ThumbCMC			ThumbMCP			ThumbIP			ThumbTip			IndexMCP			IndexPIP			IndexTip			MiddleMCP			MiddlePIP			MiddleTip			RingMCP			RingPIP			RingTip			PinkyMCP			PinkyPIP			PinkyTip			BackHand1			BackHand2			BackHand3	
		X0	Y0	Z0	X1	Y1	Z1	X2	Y2	Z2	X3	Y3	Z3	X4	Y4	Z4	X5	Y5	Z5	X6	Y6	Z6	X7	Y7	Z7	X8	Y8	Z8	X9	Y9	Z9	X10	Y10	Z10	X11	Y11	Z11	X12	Y12	Z12	X13	Y13	Z13	X14	Y14	Z14	X15	Y15	Z15	X16	Y16	Z16	X17	Y17	Z17	X18	Y18	Z18	
136	1.13333	169.895	115.924	48.1042	136.863	117.682	21.409	119.424	111.167	-1.2441	105.301	93.1543	-17.4646	185.83	95.4777	-31.1525	181.609	99.4121	-57.1181	171.908	91.6294	-84.9167	156.572	81.1203	-35.6432	127.122	95.5916	-31.3177	131.167	95.3372	8.6408	145.951	59.9817	-26.6289	117.391	75.6596	-19.6468	122.238	83.2764	14.7	157.134	36.2356	-11.6009	151.625	30.6703	-32.5048	157.725	27.8864	-54.0938	185.098	50.1001	22.2665	187.91	47.355	60.27	199.779	80.8228	36.6963	
137	1.14167	175.121	116.391	48.9912	144.251	121.972	21.0903	127.679	121.191	-4.59642	112.393	106.13	-17.993	192.536	96.0214	-33.9679	187.589	97.9284	-57.2117	181.648	94.076	-82.4067	162.178	82.1823	-34.4424	129.984	98.8852	-26.8424	135.185	98.7579	10.0559	148.889	61.9275	-28.6621	120.926	80.8566	-18.0979	127.618	86.5141	15.1699	160.63	36.0733	-14.7146	157.434	30.5044	-31.562	158.73	21.8786	-54.3243	187.757	45.9915	25.2006	194.704	49.6302	58.6251	203.817	82.5846	37.8487	
138	1.15	182.657	115.553	49.3696	154.298	127.002	24.4596	138.309	129.484	-1.58194	120.263	126.398	-20.9395	198.053	92.112	-32.8427	194.548	94.2541	-58.8971	187.233	88.4945	-81.608	166.505	81.3905	-34.7565	135.54	97.9063	-25.2456	135.836	96.2945	9.77388	155.811	61.0559	-25.088	124.536	78.2503	-17.1548	131.437	87.4502	14.9211	164.231	33.9871	-13.225	161.18	29.4891	-30.8654	164.495	20.2895	-52.8827	193.313	47.1468	23.9536	195.66	43.9303	59.115	206.644	78.1561	42.3162	
139	1.15833	189.444	111.007	51.8373	166.058	125.708	25.5307	152.527	137.336	2.29748	138.79	139.975	-14.5349	204.662	92.4198	-31.6026	198.657	91.3285	-58.0701	192.044	86.4354	-79.1184	172.419	79.645	-33.2599	140.265	96.6042	-25.3912	140.724	96.9193	11.0204	160.472	62.1106	-23.7953	131.073	77.8904	-18.8435	135.91	85.6584	16.9164	164.236	30.8965	-11.3037	162.973	29.1351	-26.807	166.254	19.9914	-50.6898	195.017	46.0035	26.1529	198.512	42.6354	62.1683	210.813	74.0226	43.1974	
140	1.16667	196.897	110.234	51.1239	176.757	132.407	31.1244	166.585	142.655	10.3049	156.941	153.252	-9.39957	207.139	88.6657	-27.4704	199.432	84.0968	-56.6	195.244	82.5625	-80.3369	178.121	76.3838	-30.2642	145.254	96.1255	-26.7449	143.512	96.1013	11.9358	159.912	56.9294	-23.816	134.869	79.4877	-17.6768	138.646	83.3678	18.5834	166.237	31.687	-5.57039	163.296	29.511	-23.835	166.689	20.9103	-50.8835	193.536	40.7973	31.6837	198.663	42.1996	62.5616	215.277	75.1088	44.2574	
141	1.175	201.411	113.312	56.137	183.13	130.988	31.0041	178.203	148.494	10.8635	169.167	159.147	-3.48605	209.053	87.5684	-30.8093	201.245	81.0634	-53.253	194.232	76.4857	-77.9062	177.936	72.2726	-29.3032	148.41	94.2408	-28.1582	144.871	96.9628	10.2021	163.117	60.4776	-23.4448	135.231	76.8644	-14.4477	139.357	85.1602	15.3511	166.068	28.7705	-4.67101	161.757	27.8556	-26.9106	162.953	20.7544	-46.3064	199.277	43.5095	29.6306	201.403	39.1668	66.4528	215.272	70.1372	44.6628	
142	1.18333	203.563	112.41	52.563	189.348	134.144	35.8123	185.133	149.609	13.2199	178.842	162.75	2.5142	207.789	83.9898	-28.4766	202.48	82.6956	-52.671	196.75	76.8536	-77.2715	176.902	73.1155	-30.8248	146.821	87.9791	-27.841	147.279	94.3161	14.4266	161.016	57.5308	-23.549	137.518	75.5421	-17.8839	140.387	82.3524	19.9579	167.06	29.2126	-6.5797	163.575	29.1145	-23.9823	163.38	18.5293	-46.5828	198.914	42.8626	33.8947	202.81	37.3329	62.9751	218.975	72.6848	44.2071	
143	1.19167	203.259	108.308	53.0577	191.951	131.888	38.1699	190.44	150.939	15.2129	188.884	166.683	2.20084	205.807	85.0844	-26.3664	199.9	82.251	-55.7883	192.436	73.1653	-78.1806	176.15	71.6441	-29.1858	143.838	87.612	-26.8396	145.633	94.8582	14.4629	163.034	54.6899	-20.0664	131.051	74.0236	-12.0883	135.61	82.3319	18.0547	165.4	28.0654	-3.4002	159.238	26.5362	-22.2336	163.59	23.0557	-47.6827	199.989	41.6311	28.7735	201.644	41.0059	68.3333	214.258	71.6282	43.8283	
144	1.2	201.769	107.504	59.1127	192.434	132.201	38.6242	191.782	147.466	17.327	191.789	166.275	7.21537	201.241	83.1585	-29.8992	193.731	77.0984	-54.9103	189.307	75.0604	-76.7397	173.834	73.0362	-27.6049	140.169	88.2944	-24.4693	140.704	94.567	13.1076	156.321	54.5858	-20.8712	129.542	70.2209	-14.9502	131.016	80.8299	20.6409	161.298	25.6511	-4.16528	156.54	25.4309	-26.1662	158.571	22.3359	-44.0355	194.139	40.9071	29.0645	200.923	40.3574	68.6804	214.379	69.6541	42.6338	
145	1.20833	198.79	106.419	57.3843	190.274	129.452	35.8955	190.434	148.311	18.3787	191.396	165.209	6.55475	192.099	79.8744	-29.4244	186.452	77.4146	-51.8755	178.854	72.9013	-77.0359	166.821	69.8914	-27.724	133.63	86.9489	-24.6839	134.458	91.5184	15.2844	151.756	53.4354	-19.7137	122.446	71.9478	-12.2806	125.199	78.8355	21.2984	157.759	26.8192	-2.27716	151.502	24.6676	-21.1118	149.682	16.176	-43.1444	189.484	36.5909	33.1313	197.4	38.5784	66.5242	209.214	66.8401	43.5346	
146	1.21667	194.834	105.934	53.4897	185.127	126.992	38.516	185.507	146.1	15.8032	184.387	162.912	7.58612	183.64	82.4032	-31.8907	175.077	79.9628	-50.6083	162.149	69.3774	-77.0136	156.337	69.9049	-26.0085	123.403	85.231	-19.7416	129.921	89.6066	21.2081	143.753	50.6945	-15.771	114.564	69.4066	-8.27013	117.631	78.0208	22.7827	149.497	24.2644	-4.04367	143.331	23.0263	-22.4139	141.878	19.7956	-45.7997	187.366	39.2203	28.659	192.396	37.7377	63.9636	203.136	68.8613	44.0071	
147	1.225	190.284	106.98	53.8026	179.842	127.762	38.4947	178.118	144.608	17.1946	178.372	161.531	6.45406	171.427	79.7711	-27.9791	161.225	76.4488	-51.5694	148.044	70.2612	-76.0486	142.658	67.3095	-25.8864	112.016	85.85	-14.4708	122.303	91.88	23.4591	134.379	51.325	-14.4865	105.556	66.3919	-6.12085	109.934	76.8369	26.5083	144.83	26.2033	0.856796	135.626	20.5302	-17.395	134.647	13.7005	-40.0151	180.838	38.8423	30.5589	189.34	39.2285	60.6739	196.859	67.7693	42.615	
